<svg width="90" height="40" viewBox="0 0 90 40" fill="none" xmlns="http://www.w3.org/2000/svg">
<rect width="1.59727" height="26.0151" rx="0.798635" transform="matrix(6.37269e-08 1 1 -2.99824e-08 57.8087 3.37317)" fill="#FBE8DE"/>
<rect width="1.59727" height="26.0151" rx="0.798635" transform="matrix(6.37268e-08 1 1 -2.99824e-08 59.2336 3.11304)" fill="#FBE8DE"/>
<rect width="1.59727" height="26.0151" rx="0.798635" transform="matrix(6.37268e-08 1 1 -2.99824e-08 55.8572 5.27161)" fill="#FBE8DE"/>
<rect width="1.59727" height="26.0151" rx="0.798635" transform="matrix(6.37269e-08 1 1 -2.99824e-08 57.3274 2.49878)" fill="#FBE8DE"/>
<rect width="1.4744" height="26.0844" rx="0.737202" transform="matrix(6.37268e-08 1 1 -2.99824e-08 54.5573 3.8479)" fill="#FBE8DE"/>
<rect width="1.59727" height="26.0844" rx="0.798635" transform="matrix(6.37268e-08 1 1 -2.99824e-08 60.8702 4.64648)" fill="#FBE8DE"/>
<rect width="1.59727" height="26.0151" rx="0.798636" transform="matrix(6.37268e-08 1 1 -2.99825e-08 57.8087 31.0634)" fill="#FBE8DE"/>
<rect width="1.59727" height="26.0151" rx="0.798635" transform="matrix(6.37269e-08 1 1 -2.99824e-08 59.2336 30.8032)" fill="#FBE8DE"/>
<rect width="1.59727" height="26.0151" rx="0.798636" transform="matrix(6.37268e-08 1 1 -2.99825e-08 55.8572 32.9618)" fill="#FBE8DE"/>
<rect width="1.59727" height="26.0151" rx="0.798636" transform="matrix(6.37268e-08 1 1 -2.99825e-08 57.3274 30.189)" fill="#FBE8DE"/>
<rect width="1.4744" height="26.0844" rx="0.737201" transform="matrix(6.37269e-08 1 1 -2.99824e-08 54.5573 31.5381)" fill="#FBE8DE"/>
<rect width="1.59727" height="26.0844" rx="0.798636" transform="matrix(6.37268e-08 1 1 -2.99825e-08 60.8702 32.3367)" fill="#FBE8DE"/>
<rect width="2.02215" height="22.0282" rx="1.01107" transform="matrix(0.770161 -0.637849 -0.770161 -0.637849 71.66 21.0331)" fill="#4CA96D"/>
<rect width="2.02215" height="22.0282" rx="1.01107" transform="matrix(0.770162 -0.637849 -0.770161 -0.637849 70.4771 20.4735)" fill="#4CA96D"/>
<rect width="2.02215" height="22.0282" rx="1.01107" transform="matrix(0.770161 -0.637849 -0.770161 -0.637849 74.7837 20.5541)" fill="#4CA96D"/>
<rect width="2.02215" height="22.0282" rx="1.01107" transform="matrix(0.770161 -0.637849 -0.770161 -0.637849 71.1213 21.9991)" fill="#4CA96D"/>
<rect width="1.8666" height="22.087" rx="0.933299" transform="matrix(0.770162 -0.637849 -0.770161 -0.637849 74.2432 22.4059)" fill="#4CA96D"/>
<rect width="2.02215" height="22.087" rx="1.01107" transform="matrix(0.770162 -0.637849 -0.770161 -0.637849 70.905 18.3513)" fill="#4CA96D"/>
<rect width="2.02215" height="22.0282" rx="1.01107" transform="matrix(-0.770161 -0.637849 -0.770162 0.637849 73.6035 19.3727)" fill="#4CA96D"/>
<rect width="2.02215" height="22.0282" rx="1.01107" transform="matrix(-0.770161 -0.637849 -0.770161 0.637849 72.9278 20.3523)" fill="#4CA96D"/>
<rect width="2.02215" height="22.0282" rx="1.01107" transform="matrix(-0.770161 -0.637849 -0.770162 0.637849 73.025 16.7856)" fill="#4CA96D"/>
<rect width="2.02215" height="22.0282" rx="1.01107" transform="matrix(-0.770161 -0.637849 -0.770162 0.637849 74.7698 19.8188)" fill="#4CA96D"/>
<rect width="1.8666" height="22.087" rx="0.933299" transform="matrix(-0.770161 -0.637849 -0.770162 0.637849 75.261 17.2333)" fill="#4CA96D"/>
<rect width="2.02215" height="22.087" rx="1.01107" transform="matrix(-0.770161 -0.637849 -0.770161 0.637849 70.3654 19.9979)" fill="#4CA96D"/>
<rect width="1.9286" height="29.5607" rx="0.964301" transform="matrix(-1 0 0 1 10.0524 3.69458)" fill="#FBE8DE"/>
<rect width="1.9286" height="29.5607" rx="0.964301" transform="matrix(-1 0 0 1 10.3665 5.31372)" fill="#FBE8DE"/>
<rect width="1.9286" height="29.5607" rx="0.9643" transform="matrix(-1 0 0 1 7.76013 1.47717)" fill="#FBE8DE"/>
<rect width="1.9286" height="29.5607" rx="0.964301" transform="matrix(-1 0 0 1 11.1082 3.14771)" fill="#FBE8DE"/>
<rect width="1.78025" height="29.6395" rx="0.890124" transform="matrix(-1 0 0 1 9.47925 0)" fill="#FBE8DE"/>
<rect width="1.9286" height="29.6395" rx="0.964301" transform="matrix(-1 0 0 1 8.51495 7.17334)" fill="#FBE8DE"/>
<rect width="1.59727" height="26.0151" rx="0.798635" transform="matrix(6.37268e-08 1 1 -2.99824e-08 3.2514 3.61121)" fill="#FBE8DE"/>
<rect width="1.59727" height="26.0151" rx="0.798635" transform="matrix(6.37268e-08 1 1 -2.99824e-08 4.67639 3.35107)" fill="#FBE8DE"/>
<rect width="1.59727" height="26.0151" rx="0.798635" transform="matrix(6.37269e-08 1 1 -2.99824e-08 1.29993 5.50964)" fill="#FBE8DE"/>
<rect width="1.59727" height="26.0151" rx="0.798635" transform="matrix(6.37269e-08 1 1 -2.99824e-08 2.77014 2.73682)" fill="#FBE8DE"/>
<rect width="1.4744" height="26.0844" rx="0.737202" transform="matrix(6.37269e-08 1 1 -2.99824e-08 0 4.08594)" fill="#FBE8DE"/>
<rect width="1.59727" height="26.0844" rx="0.798635" transform="matrix(6.37268e-08 1 1 -2.99824e-08 6.31299 4.88452)" fill="#FBE8DE"/>
<rect width="2.02215" height="22.0282" rx="1.01107" transform="matrix(-0.770161 -0.637849 0.770161 -0.637849 16.803 21.999)" fill="#EA552B"/>
<rect width="2.02215" height="22.0282" rx="1.01107" transform="matrix(-0.770161 -0.637849 0.770161 -0.637849 17.986 21.4395)" fill="#EA552B"/>
<rect width="2.02215" height="22.0282" rx="1.01107" transform="matrix(-0.770161 -0.637849 0.770161 -0.637849 13.6794 21.52)" fill="#EA552B"/>
<rect width="2.02215" height="22.0282" rx="1.01107" transform="matrix(-0.770161 -0.637849 0.770161 -0.637849 17.3418 22.9651)" fill="#EA552B"/>
<rect width="1.8666" height="22.087" rx="0.933299" transform="matrix(-0.770161 -0.637849 0.770161 -0.637849 14.2199 23.3718)" fill="#EA552B"/>
<rect width="2.02215" height="22.087" rx="1.01107" transform="matrix(-0.770161 -0.637849 0.770161 -0.637849 17.5581 19.3173)" fill="#EA552B"/>
<rect width="2.02215" height="22.0282" rx="1.01107" transform="matrix(0.770161 -0.637849 0.770161 0.637849 14.8597 20.3386)" fill="#EA552B"/>
<rect width="2.02215" height="22.0282" rx="1.01107" transform="matrix(0.770161 -0.637849 0.770161 0.637849 15.5353 21.3182)" fill="#EA552B"/>
<rect width="2.02215" height="22.0282" rx="1.01107" transform="matrix(0.770161 -0.637849 0.770161 0.637849 15.4381 17.7516)" fill="#EA552B"/>
<rect width="2.02215" height="22.0282" rx="1.01107" transform="matrix(0.770161 -0.637849 0.770161 0.637849 13.6933 20.7848)" fill="#EA552B"/>
<rect width="1.8666" height="22.087" rx="0.933299" transform="matrix(0.770161 -0.637849 0.770162 0.637849 13.2021 18.1992)" fill="#EA552B"/>
<rect width="2.02215" height="22.087" rx="1.01107" transform="matrix(0.770161 -0.637849 0.770161 0.637849 18.0978 20.9639)" fill="#EA552B"/>
<rect width="2.05802" height="41.15" rx="1.02901" transform="matrix(-0.826238 -0.563322 -0.70497 0.709237 60.5851 6.66772)" fill="#3FAEFF"/>
<rect width="2.05802" height="41.15" rx="1.02901" transform="matrix(-0.826238 -0.563322 -0.70497 0.709237 59.273 8.4552)" fill="#3FAEFF"/>
<rect width="2.05802" height="41.15" rx="1.02901" transform="matrix(-0.826238 -0.563322 -0.70497 0.709237 60.7401 3.10059)" fill="#3FAEFF"/>
<rect width="2.05802" height="41.15" rx="1.02901" transform="matrix(-0.826238 -0.563322 -0.70497 0.709237 62.0526 6.76257)" fill="#3FAEFF"/>
<rect width="1.89971" height="41.2597" rx="0.949854" transform="matrix(-0.826238 -0.563322 -0.70497 0.709237 63.7054 2.67566)" fill="#3FAEFF"/>
<rect width="2.05802" height="41.2597" rx="1.02901" transform="matrix(-0.826238 -0.563322 -0.70497 0.709237 55.8156 9.17822)" fill="#3FAEFF"/>
</svg>
