<svg width="421" height="420" viewBox="0 0 421 420" fill="none" xmlns="http://www.w3.org/2000/svg">
<rect x="0.193359" width="420" height="420" rx="210" fill="#252730"/>
<rect width="11.8049" height="128.597" rx="5.90247" transform="matrix(0.761086 -0.648651 -0.761086 -0.648651 312.298 256.212)" fill="#3FAEFF"/>
<rect width="11.8049" height="128.597" rx="5.90247" transform="matrix(0.761086 -0.648651 -0.761086 -0.648651 305.473 252.89)" fill="#3FAEFF"/>
<rect width="11.8049" height="128.597" rx="5.90247" transform="matrix(0.761086 -0.648651 -0.761086 -0.648651 330.318 253.368)" fill="#3FAEFF"/>
<rect width="11.8049" height="128.597" rx="5.90247" transform="matrix(0.761086 -0.648651 -0.761086 -0.648651 309.19 261.947)" fill="#3FAEFF"/>
<rect width="10.8969" height="128.94" rx="5.44844" transform="matrix(0.761086 -0.648651 -0.761086 -0.648651 327.2 264.362)" fill="#3FAEFF"/>
<rect width="11.8049" height="128.94" rx="5.90247" transform="matrix(0.761086 -0.648651 -0.761086 -0.648651 307.942 240.291)" fill="#3FAEFF"/>
<rect width="11.8049" height="128.597" rx="5.90247" transform="matrix(-0.761086 -0.648651 -0.761086 0.648651 323.509 246.355)" fill="#3FAEFF"/>
<rect width="11.8049" height="128.597" rx="5.90247" transform="matrix(-0.761086 -0.648651 -0.761086 0.648651 319.611 252.171)" fill="#3FAEFF"/>
<rect width="11.8049" height="128.597" rx="5.90247" transform="matrix(-0.761086 -0.648651 -0.761086 0.648651 320.172 230.996)" fill="#3FAEFF"/>
<rect width="11.8049" height="128.597" rx="5.90247" transform="matrix(-0.761086 -0.648651 -0.761086 0.648651 330.238 249.003)" fill="#3FAEFF"/>
<rect width="10.8969" height="128.94" rx="5.44844" transform="matrix(-0.761086 -0.648651 -0.761086 0.648651 333.072 233.654)" fill="#3FAEFF"/>
<rect width="11.8049" height="128.94" rx="5.90247" transform="matrix(-0.761086 -0.648651 -0.761086 0.648651 304.829 250.067)" fill="#3FAEFF"/>
<rect width="11.8049" height="128.597" rx="5.90247" transform="matrix(-0.761086 -0.648651 0.761086 -0.648651 109.089 187.212)" fill="#3FAEFF"/>
<rect width="11.8049" height="128.597" rx="5.90247" transform="matrix(-0.761086 -0.648651 0.761086 -0.648651 115.913 183.89)" fill="#3FAEFF"/>
<rect width="11.8049" height="128.597" rx="5.90247" transform="matrix(-0.761086 -0.648651 0.761086 -0.648651 91.0686 184.368)" fill="#3FAEFF"/>
<rect width="11.8049" height="128.597" rx="5.90247" transform="matrix(-0.761086 -0.648651 0.761086 -0.648651 112.197 192.947)" fill="#3FAEFF"/>
<rect width="10.8969" height="128.94" rx="5.44844" transform="matrix(-0.761086 -0.648651 0.761086 -0.648651 94.1865 195.362)" fill="#3FAEFF"/>
<rect width="11.8049" height="128.94" rx="5.90247" transform="matrix(-0.761086 -0.648651 0.761086 -0.648651 113.445 171.291)" fill="#3FAEFF"/>
<rect width="11.8049" height="128.597" rx="5.90247" transform="matrix(0.761086 -0.648651 0.761086 0.648651 97.8774 177.355)" fill="#3FAEFF"/>
<rect width="11.8049" height="128.597" rx="5.90247" transform="matrix(0.761086 -0.648651 0.761086 0.648651 101.775 183.171)" fill="#3FAEFF"/>
<rect width="11.8049" height="128.597" rx="5.90247" transform="matrix(0.761086 -0.648651 0.761086 0.648651 101.215 161.996)" fill="#3FAEFF"/>
<rect width="11.8049" height="128.597" rx="5.90247" transform="matrix(0.761086 -0.648651 0.761086 0.648651 91.1487 180.003)" fill="#3FAEFF"/>
<rect width="10.8969" height="128.94" rx="5.44844" transform="matrix(0.761086 -0.648651 0.761086 0.648651 88.3154 164.654)" fill="#3FAEFF"/>
<rect width="11.8049" height="128.94" rx="5.90247" transform="matrix(0.761086 -0.648651 0.761086 0.648651 116.558 181.067)" fill="#3FAEFF"/>
</svg>
