<svg width="40" height="40" viewBox="0 0 40 40" fill="none" xmlns="http://www.w3.org/2000/svg">
<rect width="40" height="40" rx="20" fill="#252730"/>
<rect width="1.12428" height="12.2473" rx="0.56214" transform="matrix(0.761086 -0.648651 -0.761086 -0.648651 29.7241 24.4011)" fill="#4CA96D"/>
<rect width="1.12428" height="12.2473" rx="0.56214" transform="matrix(0.761086 -0.648651 -0.761086 -0.648651 29.0742 24.0847)" fill="#4CA96D"/>
<rect width="1.12428" height="12.2473" rx="0.56214" transform="matrix(0.761086 -0.648651 -0.761086 -0.648651 31.4404 24.1302)" fill="#4CA96D"/>
<rect width="1.12428" height="12.2473" rx="0.56214" transform="matrix(0.761086 -0.648651 -0.761086 -0.648651 29.4282 24.9473)" fill="#4CA96D"/>
<rect width="1.0378" height="12.28" rx="0.518899" transform="matrix(0.761086 -0.648651 -0.761086 -0.648651 31.1436 25.1772)" fill="#4CA96D"/>
<rect width="1.12428" height="12.28" rx="0.56214" transform="matrix(0.761086 -0.648651 -0.761086 -0.648651 29.3091 22.8849)" fill="#4CA96D"/>
<rect width="1.12428" height="12.2473" rx="0.56214" transform="matrix(-0.761086 -0.648651 -0.761086 0.648651 30.7915 23.4624)" fill="#4CA96D"/>
<rect width="1.12428" height="12.2473" rx="0.56214" transform="matrix(-0.761086 -0.648651 -0.761086 0.648651 30.4204 24.0162)" fill="#4CA96D"/>
<rect width="1.12428" height="12.2473" rx="0.56214" transform="matrix(-0.761086 -0.648651 -0.761086 0.648651 30.4741 21.9996)" fill="#4CA96D"/>
<rect width="1.12428" height="12.2473" rx="0.56214" transform="matrix(-0.761086 -0.648651 -0.761086 0.648651 31.4326 23.7146)" fill="#4CA96D"/>
<rect width="1.0378" height="12.28" rx="0.518899" transform="matrix(-0.761086 -0.648651 -0.761086 0.648651 31.7021 22.2527)" fill="#4CA96D"/>
<rect width="1.12428" height="12.28" rx="0.56214" transform="matrix(-0.761086 -0.648651 -0.761086 0.648651 29.0127 23.8159)" fill="#4CA96D"/>
<rect width="1.12428" height="12.2473" rx="0.56214" transform="matrix(-0.761086 -0.648651 0.761086 -0.648651 10.3711 17.8297)" fill="#4CA96D"/>
<rect width="1.12428" height="12.2473" rx="0.56214" transform="matrix(-0.761086 -0.648651 0.761086 -0.648651 11.021 17.5133)" fill="#4CA96D"/>
<rect width="1.12428" height="12.2473" rx="0.56214" transform="matrix(-0.761086 -0.648651 0.761086 -0.648651 8.65479 17.5588)" fill="#4CA96D"/>
<rect width="1.12428" height="12.2473" rx="0.56214" transform="matrix(-0.761086 -0.648651 0.761086 -0.648651 10.667 18.3759)" fill="#4CA96D"/>
<rect width="1.0378" height="12.28" rx="0.518899" transform="matrix(-0.761086 -0.648651 0.761086 -0.648651 8.95166 18.6058)" fill="#4CA96D"/>
<rect width="1.12428" height="12.28" rx="0.56214" transform="matrix(-0.761086 -0.648651 0.761086 -0.648651 10.7861 16.3135)" fill="#4CA96D"/>
<rect width="1.12428" height="12.2473" rx="0.56214" transform="matrix(0.761086 -0.648651 0.761086 0.648651 9.30371 16.891)" fill="#4CA96D"/>
<rect width="1.12428" height="12.2473" rx="0.56214" transform="matrix(0.761086 -0.648651 0.761086 0.648651 9.6748 17.4448)" fill="#4CA96D"/>
<rect width="1.12428" height="12.2473" rx="0.56214" transform="matrix(0.761086 -0.648651 0.761086 0.648651 9.62109 15.4282)" fill="#4CA96D"/>
<rect width="1.12428" height="12.2473" rx="0.56214" transform="matrix(0.761086 -0.648651 0.761086 0.648651 8.6626 17.1432)" fill="#4CA96D"/>
<rect width="1.0378" height="12.28" rx="0.518899" transform="matrix(0.761086 -0.648651 0.761086 0.648651 8.39307 15.6813)" fill="#4CA96D"/>
<rect width="1.12428" height="12.28" rx="0.56214" transform="matrix(0.761086 -0.648651 0.761086 0.648651 11.0825 17.2445)" fill="#4CA96D"/>
</svg>
