<svg viewBox="0 0 181 183" fill="none" xmlns="http://www.w3.org/2000/svg" x="0px" y="0px" enable-background="new 0 0 181 183" xml:space="preserve" class="hero__img">
<g id="red">
<path fill-rule="evenodd" clip-rule="evenodd" d="M129.846 95.5823C134.494 95.8912 139.12 95.5577 143.653 96.8181C148.495 98.1641 154.555 98.4044 157.422 103.249C160.513 108.472 156.626 116.302 158.678 122.208C160.554 127.605 165.577 130.358 168.479 135.064C172.66 141.844 181.855 148.242 179.669 156.245C177.428 164.451 166.627 163.205 159.914 166.422C155.571 168.504 151.11 169.822 146.8 171.998C143.05 173.892 139.79 176.777 135.984 178.504C131.763 180.418 127.453 183.915 123.039 182.777C118.599 181.632 116.467 175.404 112.64 172.485C108.869 169.608 103.657 169.586 100.612 165.671C97.5738 161.764 96.4255 156.161 95.8371 150.878C95.2714 145.799 98.006 140.784 97.2778 135.734C96.273 128.766 90.7249 123.228 90.8306 116.159C90.9336 109.273 87.9718 96.34 92.65 92.3053C97.4742 88.1446 109.485 95.2922 115.43 94.9425C120.274 94.6575 125.004 95.2605 129.846 95.5823Z" fill="#B94D8E"/>
</g>
<g id="pink">
<path fill-rule="evenodd" clip-rule="evenodd" d="M60.7942 91.0024C72.0362 91.26 77.4757 107.527 81.4655 119.507C84.0399 127.238 76.7391 134.95 78.1322 143.064C80.3624 156.054 98.1714 167.23 91.5216 178.082C85.3142 188.212 70.8275 176.042 60.7942 171.359C55.1605 168.73 53.5403 160.406 47.9223 157.733C32.4603 150.378 5.40085 161.582 1.31506 143.064C-2.37215 126.353 19.0084 95.9962 31.0001 85.5C39.8924 77.7165 49.5838 90.7456 60.7942 91.0024Z" fill="#4DB9A6"/>
</g>
<g id="cyan">
<path fill-rule="evenodd" clip-rule="evenodd" d="M140.605 75.5916C136.64 74.4351 132.45 75.7595 128.424 74.8884C123.57 73.8381 117.105 86.4784 114.306 82.0417C111.321 77.3105 118.1 58.0091 115.635 52.9364C113.413 40.494 91.6144 45.2006 90.0499 37.9271C88.751 31.8882 106.221 29.6862 109.551 24.6504C112.587 20.0597 113.902 13.797 118.351 10.8698C122.802 7.94223 128.715 10.5129 133.668 8.78591C139.263 6.83528 143.391 -1.00444 149.175 0.12374C154.884 1.23747 156.289 9.91541 160.666 14.0523C164.628 17.7963 170.676 18.6521 173.71 23.3093C176.769 28.0054 176.534 34.2212 177.491 39.8804C178.505 45.883 181.468 52.1157 179.548 57.8509C177.622 63.6069 171.478 66.1127 167.325 70.2524C163.507 74.0584 160.991 80.4081 155.895 81.4263C150.524 82.4996 145.879 77.1303 140.605 75.5916Z" fill="#894DB9"/>
</g>
<g id="purple">
<path fill-rule="evenodd" clip-rule="evenodd" d="M40.7994 0.194309C49.9606 1.60517 54.35 11.2243 59.6791 18.2467C63.3898 23.1365 62.4119 30.0439 66.7875 34.4403C77.1787 44.8809 99.1073 46.5509 101.75 60.5178C104.036 72.602 90.2338 88.631 76.9547 88.175C60.4167 87.6071 57.3448 58.0931 40.7994 58.4248C23.5952 58.7696 17.5736 98.7696 3.48508 89.6477C-10.5229 80.5779 22.1144 63.0871 23.7117 47.361C24.3947 40.6367 10.5635 39.4217 9.26158 32.7757C7.79684 25.2989 11.2277 17.2952 16.7119 11.6296C22.8787 5.25863 31.6704 -1.21159 40.7994 0.194309Z" fill="#B94D4D"/>
</g>
</svg>
