<svg width="250" height="60" viewBox="0 0 250 60" fill="none" xmlns="http://www.w3.org/2000/svg">
<path d="M57.1921 47.4888C45.592 56.2692 29.412 56.199 17.8912 47.3183L26.3351 43.4271C26.7372 43.2413 27.1232 43.0234 27.4891 42.7755C27.6001 42.7004 27.7112 42.622 27.8171 42.5401C28.736 41.8488 29.4925 40.9708 30.0348 39.9659C30.4447 39.1938 30.7171 38.3583 30.8399 37.4958C30.9247 36.9361 30.9676 36.3711 30.9684 35.8053C30.9684 35.215 30.9527 34.6248 30.9319 34.0346C30.9198 33.649 30.9094 33.2618 30.9041 32.8763C30.8972 32.3361 30.8914 31.7953 30.8868 31.254L31.2339 31.4246L32.1362 31.8834L32.5544 31.9534L37.3924 32.762L42.7926 33.6661L42.9558 39.1249L43.0096 40.9093L43.0356 41.7758V41.8287L43.2091 41.9004L45.1301 42.668L57.1921 47.4888Z" fill="#F2A196"/>
<path d="M43.0338 41.8287C42.4374 41.9296 41.8238 41.8362 41.2864 41.5626L30.9319 33.243C30.9198 32.8575 30.9093 33.2601 30.9041 32.8746C30.8972 32.3344 30.8914 31.7936 30.8868 31.2523L31.2338 31.4228L32.1362 31.8817L32.5544 31.9517L37.3924 32.7603L42.7926 33.6644L42.9558 39.1232L43.0095 40.9076L43.0356 41.7741V41.8287H43.0338Z" fill="#E88870"/>
<path d="M57.1921 47.4889C45.592 56.2693 29.412 56.199 17.8912 47.3183L26.3351 43.4272C26.7372 43.2413 27.1232 43.0234 27.4891 42.7755C27.6001 42.7005 27.7112 42.622 27.8171 42.5401C31.9037 45.3992 37.4809 47.2023 42.305 45.0682C43.4538 44.5565 44.5089 43.7308 45.1336 42.6697L57.1921 47.4889Z" fill="url(#paint0_linear_10_17)"/>
<path d="M54.0859 13.3234C54.0703 13.4241 54.0512 13.523 54.0287 13.622C53.9083 14.1291 53.7149 14.6168 53.4543 15.0703L53.4404 15.0942C53.3415 15.2647 53.2357 15.4353 53.1211 15.6059C52.8173 16.0438 52.4857 16.4626 52.1285 16.8597L51.9151 17.0934C51.7711 17.2521 51.6253 17.4073 51.4795 17.5609C52.2517 17.3903 52.9997 18.0982 53.1367 18.8624C53.2738 19.6267 52.9632 20.3977 52.5797 21.0801C51.9082 22.2879 50.9399 23.0913 50.0878 24.1404C49.4492 24.9217 49.0952 25.8463 48.3994 26.5935L48.3473 26.6498C46.5097 28.5467 43.6082 28.9903 41.1927 29.8006C40.3251 30.094 30.9163 32.721 30.9163 33.2942C30.9163 33.1697 29.9949 32.2707 28.8339 31.1772C24.6692 27.2895 23.3001 21.2831 25.7781 16.1313C28.4418 10.5872 34.491 6.63127 40.2522 4.73092C42.0534 4.13727 44.0976 3.73809 45.8051 4.56033C47.5127 5.38256 48.3629 7.93286 46.9469 9.17815C47.8376 8.51574 48.9453 8.19932 50.0583 8.28939C51.0864 8.3527 52.0559 8.78136 52.7862 9.49545C53.3647 10.0668 53.7806 10.7773 53.9922 11.5562C54.1491 12.1323 54.1811 12.7344 54.0859 13.3234V13.3234Z" fill="#845161"/>
<path d="M54.0859 13.3234C54.0703 13.4241 54.0512 13.523 54.0286 13.622C54.013 13.651 53.9974 13.6817 53.9818 13.7158C53.7857 14.1559 53.6955 14.6302 53.4612 15.0703L53.4473 15.0942C53.3484 15.2647 53.2426 15.4353 53.128 15.6059C52.8271 16.046 52.4954 16.4649 52.1354 16.8597L51.9151 17.0934C51.771 17.2521 51.6253 17.4073 51.4795 17.5609C52.2517 17.3903 52.9996 18.0982 53.1367 18.8624C53.2738 19.6267 52.9632 20.3977 52.5797 21.0801C51.9081 22.2879 50.9398 23.0913 50.0878 24.1404C49.4492 24.9217 49.0952 25.8463 48.3994 26.5935C47.5915 25.6491 47.077 24.4961 46.9174 23.2722C46.6328 21.0102 46.8064 18.5451 46.7283 16.2559C46.6797 14.8161 46.2077 14.55 47.0857 13.3849C47.7918 12.5285 48.6085 11.7664 49.5151 11.1177C50.2231 10.6589 51.1342 10.5872 51.9793 10.7049C52.7156 10.8039 53.4105 11.0988 53.9887 11.5579C54.1465 12.1332 54.1797 12.7347 54.0859 13.3234Z" fill="#69303A"/>
<ellipse cx="29.1792" cy="26.4758" rx="2.95" ry="2.9" fill="#F2A196"/>
<ellipse cx="30.1146" cy="26.4758" rx="2.64112" ry="2.59635" fill="#E88870"/>
<path d="M30.1545 23.7464L30.918 33.4699L42.4473 40.0921C44.0997 40.698 45.9502 39.9736 46.7265 38.417C48.3855 35.0769 51.0474 29.8023 50.6969 27.8405C50.1763 24.9405 48.7881 23.917 48.7881 23.917C48.9813 22.7797 49.1733 21.6459 49.3642 20.5154C49.5828 19.2343 49.8622 17.8969 49.5377 16.609C49.1681 15.1317 48.0332 14.5022 47.0996 13.3985C44.6425 16.51 40.6027 18.2688 37.0748 20.0514C35.2562 20.9794 30.1545 23.7464 30.1545 23.7464Z" fill="#F2A196"/>
<path d="M38.6782 23.3711C39.7368 23.3711 39.7368 24.9712 38.6782 24.9797H38.6297C37.5711 24.9797 37.5711 23.3796 38.6297 23.3711H38.6782Z" fill="#00214E"/>
<path d="M47.3755 23.134C48.3594 23.1425 48.3594 24.6181 47.3755 24.6266H47.3322C46.35 24.6266 46.35 23.1425 47.3322 23.134H47.3755Z" fill="#00214E"/>
<path d="M43.0877 22.9088C43.0738 22.9685 45.406 29.0722 45.406 29.0722L42.2929 29.2206" stroke="#00214E"/>
<path d="M35.7161 21.7283C37.3226 21.4022 38.9749 21.3566 40.5975 21.5936" stroke="#00214E"/>
<path d="M45.963 21.7471C46.9549 21.5209 47.977 21.4513 48.9911 21.5407" stroke="#00214E"/>
<path d="M39.1034 30.9282C39.151 30.8532 39.2284 30.8012 39.3168 30.785C39.4053 30.7688 39.4965 30.7898 39.5684 30.8429C39.9294 31.0919 40.5888 31.6207 41.5259 31.8033C42.803 32.054 43.9102 31.5508 44.1757 31.8749C44.3249 32.0574 44.1427 32.2792 43.7939 32.5573C43.0555 33.0996 42.1259 33.3265 41.2152 33.1867C39.9867 32.9599 39.0635 31.561 39.0635 31.0646C39.0648 31.0165 39.0785 30.9696 39.1034 30.9282V30.9282Z" fill="white"/>
<path d="M72.75 30.8C72.75 28.2 73.15 25.9 73.95 23.9C74.7833 21.9 75.9 20.2333 77.3 18.9C78.7333 17.5333 80.4 16.5 82.3 15.8C84.2333 15.1 86.3167 14.75 88.55 14.75C90.7833 14.75 92.85 15.1 94.75 15.8C96.6833 16.5 98.3667 17.5333 99.8 18.9C101.233 20.2333 102.35 21.9 103.15 23.9C103.983 25.9 104.4 28.2 104.4 30.8C104.4 33.4 104 35.7167 103.2 37.75C102.4 39.75 101.283 41.4333 99.85 42.8C98.45 44.1333 96.7833 45.15 94.85 45.85C92.9167 46.55 90.8167 46.9 88.55 46.9C86.2833 46.9 84.1833 46.55 82.25 45.85C80.3167 45.1167 78.65 44.0667 77.25 42.7C75.85 41.3333 74.75 39.65 73.95 37.65C73.15 35.65 72.75 33.3667 72.75 30.8ZM81.75 30.8C81.75 33.8333 82.3667 36.1 83.6 37.6C84.8333 39.1 86.4833 39.85 88.55 39.85C90.65 39.85 92.3167 39.1 93.55 37.6C94.7833 36.1 95.4 33.8333 95.4 30.8C95.4 27.8 94.7833 25.55 93.55 24.05C92.35 22.55 90.7 21.8 88.6 21.8C86.5333 21.8 84.8667 22.55 83.6 24.05C82.3667 25.5167 81.75 27.7667 81.75 30.8ZM128.406 23.1C128.773 22.9333 129.34 22.75 130.106 22.55C130.906 22.3167 131.706 22.2 132.506 22.2C133.906 22.2 135.073 22.4167 136.006 22.85C136.94 23.25 137.506 23.85 137.706 24.65C138.073 26.0167 138.406 27.3 138.706 28.5C139.04 29.6667 139.356 30.8 139.656 31.9C139.956 32.9667 140.24 34.0333 140.506 35.1C140.806 36.1667 141.09 37.2833 141.356 38.45H141.606C141.906 36.4167 142.173 34.4833 142.406 32.65C142.64 30.7833 142.856 28.9667 143.056 27.2C143.256 25.4 143.456 23.6333 143.656 21.9C143.856 20.1333 144.056 18.35 144.256 16.55C145.49 15.85 146.806 15.5 148.206 15.5C149.44 15.5 150.506 15.7667 151.406 16.3C152.306 16.8333 152.756 17.7333 152.756 19C152.756 19.7333 152.673 20.7833 152.506 22.15C152.373 23.4833 152.173 24.9833 151.906 26.65C151.673 28.3167 151.39 30.0667 151.056 31.9C150.723 33.7333 150.373 35.4833 150.006 37.15C149.64 38.8167 149.256 40.3333 148.856 41.7C148.49 43.0333 148.14 44.0667 147.806 44.8C147.306 45.2667 146.49 45.65 145.356 45.95C144.223 46.25 143.056 46.4 141.856 46.4C140.29 46.4 138.956 46.2 137.856 45.8C136.79 45.3667 136.14 44.7667 135.906 44C135.473 42.6667 135.006 41.0833 134.506 39.25C134.006 37.4167 133.473 35.4 132.906 33.2C132.44 35.3667 131.956 37.4833 131.456 39.55C130.956 41.6167 130.506 43.3667 130.106 44.8C129.606 45.2667 128.856 45.65 127.856 45.95C126.856 46.25 125.756 46.4 124.556 46.4C123.056 46.4 121.69 46.2 120.456 45.8C119.256 45.3667 118.473 44.7667 118.106 44C117.806 43.4 117.473 42.5167 117.106 41.35C116.773 40.15 116.423 38.8 116.056 37.3C115.69 35.7667 115.306 34.1167 114.906 32.35C114.54 30.5833 114.19 28.8167 113.856 27.05C113.556 25.2833 113.273 23.5667 113.006 21.9C112.74 20.2 112.54 18.65 112.406 17.25C112.873 16.8167 113.523 16.4167 114.356 16.05C115.19 15.6833 116.09 15.5 117.056 15.5C118.323 15.5 119.356 15.7833 120.156 16.35C120.99 16.8833 121.506 17.8 121.706 19.1C122.24 22.5 122.673 25.3333 123.006 27.6C123.373 29.8667 123.656 31.7333 123.856 33.2C124.09 34.6333 124.256 35.75 124.356 36.55C124.456 37.35 124.556 37.9833 124.656 38.45H124.906C125.206 37.1167 125.49 35.8833 125.756 34.75C126.023 33.6167 126.29 32.4833 126.556 31.35C126.856 30.1833 127.156 28.95 127.456 27.65C127.756 26.3167 128.073 24.8 128.406 23.1ZM222.413 44.95C221.946 45.4167 221.263 45.7667 220.363 46C219.496 46.2667 218.446 46.4 217.213 46.4C215.98 46.4 214.813 46.2167 213.713 45.85C212.613 45.4833 211.713 44.6 211.013 43.2L206.063 33.1C205.563 32.0667 205.113 31.1 204.713 30.2C204.313 29.2667 203.88 28.2 203.413 27L203.113 27.05C203.246 28.85 203.313 30.6833 203.313 32.55C203.346 34.4167 203.363 36.25 203.363 38.05V45.8C202.996 45.9 202.43 46 201.663 46.1C200.93 46.2 200.196 46.25 199.463 46.25C198.73 46.25 198.08 46.2 197.513 46.1C196.946 46 196.48 45.8 196.113 45.5C195.746 45.2 195.463 44.8 195.263 44.3C195.063 43.7667 194.963 43.0833 194.963 42.25V17.25C195.43 16.5833 196.146 16.0833 197.113 15.75C198.08 15.4167 199.113 15.25 200.213 15.25C201.446 15.25 202.613 15.45 203.713 15.85C204.846 16.2167 205.746 17.0833 206.413 18.45L211.413 28.55C211.913 29.5833 212.363 30.5667 212.763 31.5C213.163 32.4 213.596 33.45 214.063 34.65L214.313 34.6C214.18 32.8 214.096 31 214.063 29.2C214.03 27.4 214.013 25.6 214.013 23.8V15.7C214.38 15.6 214.93 15.5 215.663 15.4C216.43 15.3 217.18 15.25 217.913 15.25C219.38 15.25 220.496 15.5167 221.263 16.05C222.03 16.55 222.413 17.6167 222.413 19.25V44.95Z" fill="white"/>
<path d="M162.57 20.35C162.57 18.9167 162.987 17.7833 163.82 16.95C164.654 16.1167 165.787 15.7 167.22 15.7H183.72C183.954 16.0667 184.154 16.55 184.32 17.15C184.52 17.75 184.62 18.3833 184.62 19.05C184.62 20.3167 184.337 21.2167 183.77 21.75C183.237 22.2833 182.52 22.55 181.62 22.55H171.07V27.2H182.32C182.554 27.5667 182.754 28.05 182.92 28.65C183.12 29.2167 183.22 29.8333 183.22 30.5C183.22 31.7667 182.954 32.6667 182.42 33.2C181.887 33.7333 181.17 34 180.27 34H171.07V39.25H183.92C184.154 39.6167 184.354 40.1 184.52 40.7C184.72 41.3 184.82 41.9333 184.82 42.6C184.82 43.8667 184.537 44.7833 183.97 45.35C183.437 45.8833 182.72 46.15 181.82 46.15H167.22C165.787 46.15 164.654 45.7333 163.82 44.9C162.987 44.0667 162.57 42.9333 162.57 41.5V20.35Z" fill="#5A7CCD"/>
<defs>
<linearGradient id="paint0_linear_10_17" x1="17.8912" y1="54.0255" x2="57.1921" y2="54.0255" gradientUnits="userSpaceOnUse">
<stop stop-color="#16243F"/>
<stop offset="1" stop-color="#6878B1"/>
</linearGradient>
</defs>
</svg>
