<svg width="1278" height="431" viewBox="0 0 1278 431" fill="none" xmlns="http://www.w3.org/2000/svg">
<path d="M320.999 338.228C245.304 396.511 139.722 396.045 64.5441 337.095L119.644 311.266C122.269 310.033 124.787 308.586 127.175 306.941C127.899 306.443 128.624 305.922 129.315 305.378C135.312 300.79 140.248 294.961 143.786 288.291C146.461 283.166 148.238 277.62 149.04 271.895C149.593 268.179 149.873 264.429 149.878 260.673C149.878 256.755 149.776 252.837 149.64 248.919C149.561 246.36 149.493 243.79 149.459 241.23C149.414 237.645 149.376 234.055 149.346 230.462L151.611 231.594L157.499 234.64L160.228 235.104L191.798 240.472L227.037 246.473L228.101 282.709L228.452 294.553L228.622 300.305V300.656L229.754 301.132L242.29 306.227L320.999 338.228Z" fill="#F2A196"/>
<path d="M228.611 300.656C224.719 301.326 220.715 300.706 217.208 298.89L149.64 243.665C149.561 241.106 149.493 243.778 149.459 241.219C149.414 237.633 149.376 234.044 149.346 230.45L151.611 231.583L157.499 234.629L160.228 235.093L191.798 240.46L227.037 246.462L228.101 282.697L228.452 294.542L228.622 300.294V300.656H228.611Z" fill="#E88870"/>
<path d="M320.999 338.228C245.304 396.511 139.722 396.045 64.5441 337.095L119.644 311.266C122.269 310.033 124.787 308.586 127.175 306.941C127.899 306.443 128.624 305.922 129.315 305.378C155.982 324.356 192.375 336.325 223.855 322.16C231.351 318.763 238.236 313.282 242.312 306.239L320.999 338.228Z" fill="url(#paint0_linear_1_1020)"/>
<path d="M300.73 111.44C300.628 112.108 300.504 112.765 300.357 113.422C299.571 116.788 298.309 120.026 296.609 123.035L296.518 123.194C295.873 124.326 295.182 125.459 294.434 126.591C292.452 129.498 290.288 132.278 287.957 134.914L286.565 136.465C285.625 137.518 284.674 138.549 283.722 139.568C288.761 138.435 293.642 143.135 294.536 148.208C295.431 153.281 293.404 158.399 290.901 162.928C286.519 170.945 280.201 176.279 274.641 183.243C270.474 188.429 268.164 194.566 263.623 199.526L263.283 199.9C251.292 212.491 232.359 215.435 216.596 220.814C210.935 222.762 149.539 240.2 149.539 244.005C149.539 243.178 143.526 237.211 135.95 229.952C108.774 204.146 99.8396 164.276 116.01 130.079C133.391 93.2772 172.865 67.0179 210.459 54.4035C222.213 50.4629 235.552 47.8132 246.694 53.2712C257.837 58.7291 263.385 75.6578 254.145 83.924C259.957 79.5269 267.185 77.4265 274.448 78.0244C281.157 78.4447 287.483 81.2901 292.249 86.0301C296.024 89.8225 298.738 94.5392 300.119 99.709C301.143 103.533 301.351 107.53 300.73 111.44V111.44Z" fill="#845161"/>
<path d="M300.73 111.44C300.628 112.108 300.504 112.765 300.357 113.422C300.255 113.614 300.153 113.818 300.051 114.045C298.771 116.966 298.183 120.114 296.654 123.035L296.563 123.194C295.918 124.326 295.227 125.459 294.48 126.591C292.516 129.512 290.352 132.293 288.003 134.914L286.565 136.465C285.625 137.518 284.674 138.549 283.722 139.568C288.761 138.435 293.642 143.135 294.536 148.208C295.431 153.281 293.404 158.399 290.901 162.928C286.519 170.945 280.201 176.279 274.641 183.243C270.474 188.429 268.164 194.566 263.623 199.526C258.351 193.257 254.994 185.603 253.953 177.479C252.096 162.464 253.228 146.101 252.719 130.905C252.401 121.348 249.321 119.582 255.051 111.848C259.659 106.163 264.988 101.104 270.904 96.7988C275.524 93.7528 281.469 93.2772 286.984 94.0585C291.789 94.7156 296.323 96.6734 300.096 99.7203C301.126 103.539 301.342 107.532 300.73 111.44Z" fill="#69303A"/>
<circle cx="138.204" cy="198.745" r="19.25" fill="#F2A196"/>
<circle cx="144.307" cy="198.745" r="17.2344" fill="#E88870"/>
<path d="M144.568 180.627L149.55 245.171L224.783 289.129C235.566 293.151 247.641 288.342 252.707 278.009C263.532 255.838 280.903 220.825 278.615 207.803C275.218 188.553 266.16 181.759 266.16 181.759C267.42 174.21 268.673 166.684 269.919 159.18C271.346 150.676 273.169 141.799 271.051 133.249C268.639 123.443 261.234 119.265 255.142 111.938C239.108 132.592 212.746 144.267 189.726 156.1C177.859 162.26 144.568 180.627 144.568 180.627Z" fill="#F2A196"/>
<path d="M200.189 178.136C207.096 178.136 207.096 188.757 200.189 188.814H199.872C192.964 188.814 192.964 178.192 199.872 178.136H200.189Z" fill="#00214E"/>
<path d="M256.942 176.562C263.363 176.618 263.363 186.413 256.942 186.47H256.659C250.25 186.47 250.25 176.618 256.659 176.562H256.942Z" fill="#00214E"/>
<path d="M228.962 175.067C228.871 175.463 244.09 215.979 244.09 215.979L223.776 216.964" stroke="#00214E"/>
<path d="M180.859 167.231C191.342 165.067 202.125 164.764 212.712 166.337" stroke="#00214E"/>
<path d="M247.725 167.356C254.197 165.854 260.867 165.392 267.484 165.986" stroke="#00214E"/>
<path d="M202.963 228.299C203.274 227.801 203.779 227.456 204.356 227.349C204.933 227.241 205.528 227.38 205.998 227.733C208.353 229.386 212.656 232.896 218.771 234.108C227.105 235.772 234.329 232.432 236.062 234.584C237.035 235.795 235.846 237.267 233.57 239.113C228.752 242.713 222.686 244.219 216.744 243.291C208.727 241.785 202.703 232.5 202.703 229.205C202.711 228.886 202.801 228.574 202.963 228.299V228.299Z" fill="white"/>
<path d="M393.75 235C393.75 222 395.75 210.5 399.75 200.5C403.917 190.5 409.5 182.167 416.5 175.5C423.667 168.667 432 163.5 441.5 160C451.167 156.5 461.583 154.75 472.75 154.75C483.917 154.75 494.25 156.5 503.75 160C513.417 163.5 521.833 168.667 529 175.5C536.167 182.167 541.75 190.5 545.75 200.5C549.917 210.5 552 222 552 235C552 248 550 259.583 546 269.75C542 279.75 536.417 288.167 529.25 295C522.25 301.667 513.917 306.75 504.25 310.25C494.583 313.75 484.083 315.5 472.75 315.5C461.417 315.5 450.917 313.75 441.25 310.25C431.583 306.583 423.25 301.333 416.25 294.5C409.25 287.667 403.75 279.25 399.75 269.25C395.75 259.25 393.75 247.833 393.75 235ZM438.75 235C438.75 250.167 441.833 261.5 448 269C454.167 276.5 462.417 280.25 472.75 280.25C483.25 280.25 491.583 276.5 497.75 269C503.917 261.5 507 250.167 507 235C507 220 503.917 208.75 497.75 201.25C491.75 193.75 483.5 190 473 190C462.667 190 454.333 193.75 448 201.25C441.833 208.583 438.75 219.833 438.75 235ZM672.031 196.5C673.865 195.667 676.698 194.75 680.531 193.75C684.531 192.583 688.531 192 692.531 192C699.531 192 705.365 193.083 710.031 195.25C714.698 197.25 717.531 200.25 718.531 204.25C720.365 211.083 722.031 217.5 723.531 223.5C725.198 229.333 726.781 235 728.281 240.5C729.781 245.833 731.198 251.167 732.531 256.5C734.031 261.833 735.448 267.417 736.781 273.25H738.031C739.531 263.083 740.865 253.417 742.031 244.25C743.198 234.917 744.281 225.833 745.281 217C746.281 208 747.281 199.167 748.281 190.5C749.281 181.667 750.281 172.75 751.281 163.75C757.448 160.25 764.031 158.5 771.031 158.5C777.198 158.5 782.531 159.833 787.031 162.5C791.531 165.167 793.781 169.667 793.781 176C793.781 179.667 793.365 184.917 792.531 191.75C791.865 198.417 790.865 205.917 789.531 214.25C788.365 222.583 786.948 231.333 785.281 240.5C783.615 249.667 781.865 258.417 780.031 266.75C778.198 275.083 776.281 282.667 774.281 289.5C772.448 296.167 770.698 301.333 769.031 305C766.531 307.333 762.448 309.25 756.781 310.75C751.115 312.25 745.281 313 739.281 313C731.448 313 724.781 312 719.281 310C713.948 307.833 710.698 304.833 709.531 301C707.365 294.333 705.031 286.417 702.531 277.25C700.031 268.083 697.365 258 694.531 247C692.198 257.833 689.781 268.417 687.281 278.75C684.781 289.083 682.531 297.833 680.531 305C678.031 307.333 674.281 309.25 669.281 310.75C664.281 312.25 658.781 313 652.781 313C645.281 313 638.448 312 632.281 310C626.281 307.833 622.365 304.833 620.531 301C619.031 298 617.365 293.583 615.531 287.75C613.865 281.75 612.115 275 610.281 267.5C608.448 259.833 606.531 251.583 604.531 242.75C602.698 233.917 600.948 225.083 599.281 216.25C597.781 207.417 596.365 198.833 595.031 190.5C593.698 182 592.698 174.25 592.031 167.25C594.365 165.083 597.615 163.083 601.781 161.25C605.948 159.417 610.448 158.5 615.281 158.5C621.615 158.5 626.781 159.917 630.781 162.75C634.948 165.417 637.531 170 638.531 176.5C641.198 193.5 643.365 207.667 645.031 219C646.865 230.333 648.281 239.667 649.281 247C650.448 254.167 651.281 259.75 651.781 263.75C652.281 267.75 652.781 270.917 653.281 273.25H654.531C656.031 266.583 657.448 260.417 658.781 254.75C660.115 249.083 661.448 243.417 662.781 237.75C664.281 231.917 665.781 225.75 667.281 219.25C668.781 212.583 670.365 205 672.031 196.5ZM1142.06 305.75C1139.73 308.083 1136.31 309.833 1131.81 311C1127.48 312.333 1122.23 313 1116.06 313C1109.9 313 1104.06 312.083 1098.56 310.25C1093.06 308.417 1088.56 304 1085.06 297L1060.31 246.5C1057.81 241.333 1055.56 236.5 1053.56 232C1051.56 227.333 1049.4 222 1047.06 216L1045.56 216.25C1046.23 225.25 1046.56 234.417 1046.56 243.75C1046.73 253.083 1046.81 262.25 1046.81 271.25V310C1044.98 310.5 1042.15 311 1038.31 311.5C1034.65 312 1030.98 312.25 1027.31 312.25C1023.65 312.25 1020.4 312 1017.56 311.5C1014.73 311 1012.4 310 1010.56 308.5C1008.73 307 1007.31 305 1006.31 302.5C1005.31 299.833 1004.81 296.417 1004.81 292.25V167.25C1007.15 163.917 1010.73 161.417 1015.56 159.75C1020.4 158.083 1025.56 157.25 1031.06 157.25C1037.23 157.25 1043.06 158.25 1048.56 160.25C1054.23 162.083 1058.73 166.417 1062.06 173.25L1087.06 223.75C1089.56 228.917 1091.81 233.833 1093.81 238.5C1095.81 243 1097.98 248.25 1100.31 254.25L1101.56 254C1100.9 245 1100.48 236 1100.31 227C1100.15 218 1100.06 209 1100.06 200V159.5C1101.9 159 1104.65 158.5 1108.31 158C1112.15 157.5 1115.9 157.25 1119.56 157.25C1126.9 157.25 1132.48 158.583 1136.31 161.25C1140.15 163.75 1142.06 169.083 1142.06 177.25V305.75Z" fill="#161616"/>
<path d="M842.852 182.75C842.852 175.583 844.935 169.917 849.102 165.75C853.268 161.583 858.935 159.5 866.102 159.5H948.602C949.768 161.333 950.768 163.75 951.602 166.75C952.602 169.75 953.102 172.917 953.102 176.25C953.102 182.583 951.685 187.083 948.852 189.75C946.185 192.417 942.602 193.75 938.102 193.75H885.352V217H941.602C942.768 218.833 943.768 221.25 944.602 224.25C945.602 227.083 946.102 230.167 946.102 233.5C946.102 239.833 944.768 244.333 942.102 247C939.435 249.667 935.852 251 931.352 251H885.352V277.25H949.602C950.768 279.083 951.768 281.5 952.602 284.5C953.602 287.5 954.102 290.667 954.102 294C954.102 300.333 952.685 304.917 949.852 307.75C947.185 310.417 943.602 311.75 939.102 311.75H866.102C858.935 311.75 853.268 309.667 849.102 305.5C844.935 301.333 842.852 295.667 842.852 288.5V182.75Z" fill="#253354"/>
<defs>
<linearGradient id="paint0_linear_1_1020" x1="64.5441" y1="381.617" x2="320.999" y2="381.617" gradientUnits="userSpaceOnUse">
<stop stop-color="#16243F"/>
<stop offset="1" stop-color="#6878B1"/>
</linearGradient>
</defs>
</svg>
